<svg width="100" height="100" fill="none" xmlns="http://www.w3.org/2000/svg"><g clip-path="url('#clip0_554_589')"><path fill="#030718" d="M0 0h100v100H0z"/><path d="M45.839 68.668 20.5 24.925l12.586 10.1L49.174 62.89l-3.335 5.778ZM69.624 42.185 44.411 86l2.454-15.95 16.088-27.865h6.671ZM34.943 35.104l50.552-.072-15.04 5.85H38.279l-3.336-5.778Z" fill="#5E47FF"/><path d="M45.839 68.668 20.5 24.925l12.586 10.1L49.174 62.89l-3.335 5.778ZM69.624 42.185 44.411 86l2.454-15.95 16.088-27.865h6.671Z" fill="#5E47FF"/><g filter="url('#filter0_f_554_589')"><path d="m34.943 35.104 50.552-.072-15.04 5.85H38.279l-3.336-5.778Z" fill="#5E47FF"/></g><path d="m50.083 59.59 9.53-16.508h-19.06l9.53 16.507Z" fill="#57E1FF"/><g filter="url('#filter1_f_554_589')"><path d="M45.839 68.668 20.5 24.925l12.586 10.1L49.174 62.89l-3.335 5.778Z" fill="#5E47FF"/></g><g filter="url('#filter2_f_554_589')"><path d="M69.624 42.185 44.411 86l2.454-15.95 16.088-27.865h6.671Z" fill="#5E47FF"/></g><path d="m34.943 35.104 50.552-.072-15.04 5.85H38.279l-3.336-5.778Z" fill="#5E47FF"/></g><defs><filter id="filter0_f_554_589" x="14.943" y="15.031" width="90.552" height="45.85" filterUnits="userSpaceOnUse" color-interpolation-filters="sRGB"><feFlood flood-opacity="0" result="BackgroundImageFix"/><feBlend in="SourceGraphic" in2="BackgroundImageFix" result="shape"/><feGaussianBlur stdDeviation="10" result="effect1_foregroundBlur_554_589"/></filter><filter id="filter1_f_554_589" x=".5" y="4.925" width="68.674" height="83.743" filterUnits="userSpaceOnUse" color-interpolation-filters="sRGB"><feFlood flood-opacity="0" result="BackgroundImageFix"/><feBlend in="SourceGraphic" in2="BackgroundImageFix" result="shape"/><feGaussianBlur stdDeviation="10" result="effect1_foregroundBlur_554_589"/></filter><filter id="filter2_f_554_589" x="24.411" y="22.185" width="65.213" height="83.815" filterUnits="userSpaceOnUse" color-interpolation-filters="sRGB"><feFlood flood-opacity="0" result="BackgroundImageFix"/><feBlend in="SourceGraphic" in2="BackgroundImageFix" result="shape"/><feGaussianBlur stdDeviation="10" result="effect1_foregroundBlur_554_589"/></filter><clipPath id="clip0_554_589"><path fill="#fff" d="M0 0h100v100H0z"/></clipPath></defs></svg>